<svg xmlns="http://www.w3.org/2000/svg" xmlns:xlink="http://www.w3.org/1999/xlink" width="128" zoomAndPan="magnify" viewBox="0 0 96 95.999999" height="128" preserveAspectRatio="xMidYMid meet" version="1.0"><defs><clipPath id="6e2c1a7670"><path d="M 8.5625 14.800781 L 85.8125 14.800781 L 85.8125 79.300781 L 8.5625 79.300781 Z M 8.5625 14.800781 " clip-rule="nonzero"/></clipPath><clipPath id="457eae4f69"><path d="M 37.011719 37.417969 L 42.015625 37.417969 L 42.015625 42.421875 L 37.011719 42.421875 Z M 37.011719 37.417969 " clip-rule="nonzero"/></clipPath><clipPath id="5f9a613f94"><path d="M 39.511719 37.417969 C 38.132812 37.417969 37.011719 38.539062 37.011719 39.917969 C 37.011719 41.300781 38.132812 42.421875 39.511719 42.421875 C 40.894531 42.421875 42.015625 41.300781 42.015625 39.917969 C 42.015625 38.539062 40.894531 37.417969 39.511719 37.417969 Z M 39.511719 37.417969 " clip-rule="nonzero"/></clipPath><clipPath id="ff1182716d"><path d="M 0.0117188 0.417969 L 5.015625 0.417969 L 5.015625 5.421875 L 0.0117188 5.421875 Z M 0.0117188 0.417969 " clip-rule="nonzero"/></clipPath><clipPath id="691355745a"><path d="M 2.511719 0.417969 C 1.132812 0.417969 0.0117188 1.539062 0.0117188 2.917969 C 0.0117188 4.300781 1.132812 5.421875 2.511719 5.421875 C 3.894531 5.421875 5.015625 4.300781 5.015625 2.917969 C 5.015625 1.539062 3.894531 0.417969 2.511719 0.417969 Z M 2.511719 0.417969 " clip-rule="nonzero"/></clipPath><clipPath id="cae63b6de8"><rect x="0" width="6" y="0" height="6"/></clipPath></defs><g clip-path="url(#6e2c1a7670)"><path fill="#090909" d="M 85.4375 71.957031 C 85.160156 73.636719 84.128906 74.765625 82.191406 75.527344 C 82.050781 75.605469 81.941406 75.652344 81.835938 75.667969 C 81.359375 75.742188 79.988281 76.09375 78.261719 76.550781 C 74.753906 77.453125 69.949219 78.707031 68.023438 78.84375 C 67.4375 78.890625 66.835938 78.933594 66.207031 78.996094 C 64.464844 79.148438 62.648438 79.300781 60.847656 79.300781 C 57.183594 79.300781 54.472656 78.613281 52.347656 77.164062 C 50.375 75.804688 48.375 74.277344 47.21875 72.292969 C 46.066406 70.335938 45.847656 68.03125 45.632812 65.800781 C 45.617188 65.601562 45.601562 65.402344 45.570312 65.203125 C 45.203125 61.417969 44.910156 57.84375 44.710938 54.300781 C 43.046875 55.6875 41.152344 56.820312 39.320312 57.933594 L 39.121094 58.054688 C 38.457031 58.46875 37.765625 58.882812 37.101562 59.308594 C 36.808594 59.507812 36.5 59.707031 36.195312 59.90625 C 35.53125 60.347656 34.792969 60.835938 34.023438 61.265625 C 33.4375 61.628906 32.777344 61.964844 31.988281 62.316406 C 31.851562 62.410156 31.699219 62.5 31.558594 62.5625 C 31.128906 62.867188 30.621094 63.128906 30.113281 63.296875 C 29.589844 63.464844 29.050781 63.570312 28.554688 63.570312 C 28.402344 63.570312 28.261719 63.570312 28.140625 63.554688 C 26.910156 63.417969 25.9375 62.714844 25.230469 62.132812 C 24.582031 61.828125 23.890625 61.371094 23.167969 60.746094 C 21.195312 59.292969 19.363281 57.535156 17.59375 55.828125 L 16.761719 55.03125 C 14.726562 53.078125 12.617188 51.0625 10.832031 48.816406 C 9.539062 47.808594 8.722656 45.976562 8.769531 44.140625 L 8.769531 44.125 C 8.597656 42.234375 8.628906 40.308594 8.660156 38.429688 C 8.675781 37.804688 8.675781 37.175781 8.691406 36.550781 C 8.691406 35.328125 8.691406 34.015625 8.691406 32.410156 C 8.691406 32.0625 8.675781 31.679688 8.660156 31.359375 L 8.660156 31.34375 C 8.628906 30.609375 8.597656 29.863281 8.691406 29.128906 C 8.628906 28.394531 8.863281 27.539062 9.277344 26.945312 C 9.523438 26.59375 9.847656 26.410156 10.171875 26.226562 C 10.371094 26.121094 10.570312 26.011719 10.753906 25.90625 L 10.910156 25.828125 C 11 25.769531 11.09375 25.722656 11.1875 25.675781 C 11.21875 25.644531 11.25 25.617188 11.277344 25.570312 C 11.386719 25.476562 11.511719 25.433594 11.632812 25.433594 L 11.664062 25.433594 L 11.742188 25.402344 C 11.785156 25.386719 11.816406 25.371094 11.847656 25.355469 C 13.957031 23.921875 16.285156 22.699219 18.515625 21.523438 L 18.960938 21.277344 C 19.316406 21.09375 19.65625 20.910156 19.996094 20.726562 C 21.085938 20.148438 22.179688 19.507812 23.242188 18.894531 L 23.257812 18.878906 C 25.214844 17.75 27.230469 16.589844 29.324219 15.65625 C 29.910156 15.09375 30.621094 14.800781 31.4375 14.800781 C 33.390625 14.800781 35.46875 16.421875 36.546875 17.398438 C 38.457031 18.726562 40.199219 20.300781 41.859375 21.828125 L 41.890625 21.859375 C 42.214844 22.148438 42.523438 22.4375 42.847656 22.730469 C 44.523438 24.257812 46.265625 25.722656 48.050781 27.234375 C 48.203125 27.371094 48.359375 27.507812 48.511719 27.660156 L 48.542969 27.675781 C 48.621094 27.738281 48.699219 27.785156 48.773438 27.84375 L 48.851562 27.890625 L 48.914062 27.9375 C 48.988281 27.984375 49.066406 28.042969 49.144531 28.089844 L 49.175781 28.105469 C 49.761719 28.289062 50.34375 28.976562 50.605469 29.402344 C 50.867188 29.832031 50.976562 30.257812 50.929688 30.703125 C 51.054688 30.976562 51.054688 31.328125 51.054688 31.570312 L 51.054688 31.585938 C 51.054688 31.664062 51.054688 31.710938 51.054688 31.753906 L 51.070312 31.878906 C 51.101562 32.410156 51.144531 33.007812 51.101562 33.601562 C 51.175781 34.792969 51.113281 36.015625 51.070312 37.207031 L 51.070312 37.285156 C 51.039062 38.078125 51.007812 38.78125 51.007812 39.46875 C 51.007812 39.652344 51.007812 39.820312 51.007812 40.019531 C 52.46875 39.683594 53.902344 39.484375 55.058594 39.316406 L 55.089844 39.316406 C 55.367188 39.269531 55.628906 39.238281 55.859375 39.207031 C 58.90625 38.75 62.511719 38.230469 66.082031 37.820312 C 68.070312 37.589844 69.824219 37.40625 71.457031 37.269531 C 71.566406 37.253906 71.671875 37.253906 71.78125 37.238281 C 72.226562 37.191406 72.703125 37.160156 73.167969 37.160156 C 74.105469 37.160156 74.8125 37.34375 75.398438 37.726562 C 75.445312 37.757812 75.492188 37.789062 75.523438 37.835938 C 77.664062 38.199219 79.078125 39.988281 80.21875 41.4375 C 81.003906 42.429688 81.757812 43.53125 82.480469 44.707031 C 82.589844 44.875 82.699219 45.058594 82.820312 45.226562 C 83.328125 45.988281 83.835938 46.785156 83.960938 47.671875 C 84.683594 49.394531 84.746094 51.289062 84.808594 53.109375 C 84.824219 53.445312 84.839844 53.765625 84.855469 54.101562 C 84.992188 56.941406 85.128906 60.011719 85.253906 63.097656 C 85.285156 63.921875 85.363281 64.761719 85.421875 65.664062 C 85.59375 67.753906 85.777344 69.953125 85.4375 71.957031 Z M 85.4375 71.957031 " fill-opacity="1" fill-rule="nonzero"/></g><path fill="#ffffff" d="M 46.527344 30.640625 C 46.742188 30.609375 46.878906 30.578125 47.019531 30.5625 C 47.019531 30.625 47.050781 30.703125 47.066406 30.761719 C 47.203125 30.703125 47.328125 30.625 47.464844 30.5625 L 47.480469 30.5625 L 47.496094 30.546875 C 47.574219 30.488281 47.664062 30.410156 47.757812 30.335938 C 47.710938 30.257812 47.664062 30.183594 47.605469 30.074219 C 47.773438 30.074219 47.914062 30.042969 48.019531 30.042969 C 48.035156 30.03125 48.035156 30 48.050781 29.984375 C 48.328125 29.585938 48.191406 28.792969 44.554688 26.027344 C 44.261719 25.8125 44.015625 25.617188 43.878906 25.492188 C 42.738281 24.515625 41.597656 23.476562 40.597656 22.5625 L 40.304688 22.285156 C 40.199219 22.179688 40.074219 22.085938 39.964844 21.980469 C 39.964844 21.980469 39.964844 21.980469 39.953125 21.964844 C 37.917969 20.132812 35.671875 18.328125 33.097656 16.496094 L 33.082031 16.480469 L 33.066406 16.480469 C 32.484375 16.253906 31.945312 16.144531 31.40625 16.144531 C 30.898438 16.144531 30.402344 16.253906 29.925781 16.453125 L 29.894531 16.453125 C 28.277344 17.460938 26.554688 18.359375 24.890625 19.214844 L 24.84375 19.230469 C 23.488281 19.933594 21.949219 20.726562 20.519531 21.582031 C 19.640625 22.101562 18.761719 22.652344 17.871094 23.203125 C 15.992188 24.363281 13.882812 25.675781 11.757812 26.730469 L 11.664062 26.777344 L 11.664062 26.867188 C 11.664062 27.113281 11.726562 27.402344 11.832031 27.675781 L 11.847656 27.738281 L 11.894531 27.769531 C 12.585938 28.152344 13.21875 28.640625 13.773438 29.066406 L 13.867188 29.128906 C 14.066406 29.28125 14.25 29.433594 14.449219 29.570312 C 15.574219 30.394531 16.699219 31.328125 17.898438 32.410156 L 17.929688 32.410156 C 20.300781 34.03125 22.441406 36.015625 24.105469 38.140625 L 24.136719 38.171875 C 24.539062 38.507812 24.9375 38.871094 25.382812 39.332031 L 25.398438 39.347656 C 25.429688 39.375 25.460938 39.40625 25.476562 39.4375 L 25.539062 39.515625 L 25.613281 39.589844 C 25.707031 39.667969 25.800781 39.757812 25.90625 39.835938 C 26.492188 40.339844 27.214844 40.859375 28.03125 40.949219 C 28.03125 40.949219 28.078125 40.949219 28.078125 40.949219 L 28.09375 40.949219 C 28.570312 40.84375 29.050781 40.613281 29.511719 40.398438 L 29.757812 40.277344 C 29.910156 40.203125 30.066406 40.140625 30.21875 40.078125 L 30.234375 40.078125 L 30.25 40.0625 C 31.804688 38.886719 33.5625 37.925781 35.300781 37.023438 C 35.253906 36.917969 35.207031 36.765625 35.117188 36.519531 C 35.4375 36.566406 35.671875 36.550781 35.855469 36.628906 C 35.886719 36.644531 35.902344 36.671875 35.902344 36.703125 C 36.226562 36.535156 36.53125 36.382812 36.855469 36.214844 L 37.132812 36.078125 C 37.71875 35.789062 38.335938 35.464844 38.902344 35.160156 C 40.503906 34.320312 42.183594 33.421875 44.015625 32.410156 C 44.371094 32.214844 44.726562 32.015625 45.09375 31.785156 L 45.21875 31.710938 C 45.648438 31.449219 46.109375 31.175781 46.589844 30.914062 C 46.601562 30.898438 46.574219 30.792969 46.527344 30.640625 Z M 28.0625 19.460938 C 28.15625 19.398438 28.25 19.351562 28.355469 19.292969 C 28.339844 18.542969 28.800781 17.949219 29.433594 17.597656 C 29.433594 17.398438 29.417969 17.199219 29.464844 17 C 29.480469 16.941406 29.710938 16.941406 29.851562 16.910156 C 29.878906 17.0625 29.910156 17.199219 29.941406 17.382812 C 30.328125 17.261719 30.757812 17.214844 31.160156 17.261719 C 31.558594 17.246094 31.976562 17.335938 32.34375 17.519531 C 33.421875 17.886719 34.269531 18.757812 33.976562 19.855469 C 33.714844 20.804688 32.777344 21.308594 31.789062 21.371094 C 30.480469 21.734375 28.832031 21.171875 28.449219 19.796875 C 28.355469 19.796875 28.261719 19.796875 28.171875 19.78125 C 28.109375 19.796875 28.03125 19.476562 28.0625 19.460938 Z M 30.726562 29.160156 C 30.695312 29.234375 30.527344 29.234375 30.402344 29.28125 C 30.375 29.144531 30.296875 28.992188 30.3125 28.867188 C 30.328125 28.808594 30.496094 28.761719 30.695312 28.65625 C 30.710938 28.882812 30.773438 29.035156 30.726562 29.160156 Z M 27.523438 30.136719 C 27.324219 30.136719 27.109375 30.136719 26.910156 30.121094 C 26.863281 30.121094 26.847656 30.015625 26.753906 29.875 C 27.046875 29.875 27.261719 29.875 27.464844 29.890625 C 27.492188 29.890625 27.507812 30.042969 27.523438 30.136719 Z M 18.871094 29.355469 C 17.4375 29.753906 15.28125 29.34375 14.804688 27.738281 C 14.652344 27.21875 14.773438 26.636719 15.082031 26.164062 C 15.207031 25.875 15.390625 25.585938 15.667969 25.324219 C 16.914062 24.132812 19.378906 24.546875 20.289062 25.964844 C 21.132812 27.324219 20.378906 28.929688 18.871094 29.355469 Z M 20.503906 29.296875 C 20.472656 29.160156 20.640625 28.976562 20.71875 28.824219 C 20.6875 29.175781 20.65625 29.511719 20.640625 29.554688 C 20.734375 29.679688 20.550781 29.496094 20.503906 29.296875 Z M 23.304688 25.859375 C 21.597656 25.523438 20.363281 23.722656 21.519531 22.164062 C 21.859375 21.707031 22.382812 21.382812 22.964844 21.203125 C 22.980469 21.203125 22.980469 21.203125 22.996094 21.1875 C 24.230469 20.820312 25.722656 21.046875 26.507812 21.933594 C 27.371094 22.910156 27.15625 24.425781 26.183594 25.019531 C 26.09375 25.109375 25.984375 25.1875 25.863281 25.25 C 25.847656 25.265625 25.816406 25.265625 25.800781 25.28125 C 25.074219 25.828125 24.183594 26.027344 23.304688 25.859375 Z M 31.867188 37.175781 C 31.496094 38.765625 29.726562 39.222656 28.292969 39.207031 C 26.816406 39.195312 25.554688 38.308594 25.644531 36.703125 C 25.738281 35.175781 27.585938 34.871094 28.800781 34.808594 C 28.925781 34.808594 29.035156 34.855469 29.109375 34.917969 C 29.25 34.902344 29.402344 34.902344 29.527344 34.902344 C 30.835938 34.976562 32.238281 35.621094 31.867188 37.175781 Z M 31.714844 33.175781 C 31.667969 33.175781 31.621094 32.976562 31.527344 32.761719 C 31.789062 32.761719 31.960938 32.75 32.097656 32.792969 C 32.160156 32.808594 32.160156 32.992188 32.191406 33.097656 C 32.035156 33.128906 31.867188 33.191406 31.714844 33.175781 Z M 32.820312 23.90625 C 33.050781 24.226562 33.269531 24.53125 33.5 24.851562 C 33.34375 24.882812 33.175781 24.898438 32.914062 24.941406 C 32.835938 24.5625 32.761719 24.242188 32.683594 23.921875 C 32.746094 23.921875 32.820312 23.890625 32.820312 23.90625 Z M 32.746094 29.707031 C 32.746094 29.664062 33.039062 29.570312 33.066406 29.617188 C 33.238281 29.816406 33.375 30.042969 33.53125 30.257812 C 33.3125 30.257812 33.113281 30.273438 32.789062 30.273438 C 32.777344 30.058594 32.714844 29.875 32.746094 29.707031 Z M 34.53125 36.917969 C 34.4375 36.855469 34.390625 36.703125 34.253906 36.488281 C 34.515625 36.503906 34.667969 36.476562 34.761719 36.535156 C 34.839844 36.597656 34.839844 36.765625 34.871094 36.886719 C 34.761719 36.902344 34.625 36.964844 34.53125 36.917969 Z M 37.65625 33.96875 C 36.410156 34.792969 34.484375 34.839844 33.34375 33.785156 C 32.003906 32.550781 33.097656 30.839844 34.640625 30.578125 C 35.5625 30.105469 36.777344 30.074219 37.71875 30.472656 C 39.425781 31.191406 38.980469 33.097656 37.65625 33.96875 Z M 43.199219 30.59375 C 43.125 30.609375 43.046875 30.625 42.953125 30.625 C 42.089844 30.960938 41.058594 31.007812 40.257812 30.535156 C 39.289062 29.96875 38.949219 28.761719 39.367188 27.753906 C 39.550781 27.324219 39.84375 27.003906 40.226562 26.777344 C 40.152344 26.792969 40.074219 26.792969 39.996094 26.792969 C 39.953125 26.792969 39.921875 26.625 39.828125 26.410156 C 40.089844 26.425781 40.257812 26.410156 40.398438 26.457031 C 40.429688 26.46875 40.445312 26.5625 40.460938 26.652344 C 41.382812 26.226562 42.644531 26.316406 43.570312 26.820312 C 43.707031 26.882812 43.847656 26.945312 43.96875 27.003906 C 44.292969 27.203125 44.492188 27.507812 44.601562 27.828125 C 44.648438 27.921875 44.695312 27.996094 44.726562 28.089844 C 45.109375 29.203125 44.277344 30.335938 43.199219 30.59375 Z M 77.585938 61.035156 C 77.402344 59.445312 77.15625 57.492188 77.15625 56.46875 L 77.15625 56.4375 C 76.585938 52.359375 76.0625 47.882812 76.046875 47.226562 C 76 46.433594 75.9375 45.746094 75.859375 45.089844 C 75.816406 44.675781 75.769531 44.28125 75.707031 43.867188 C 75.628906 43.347656 75.566406 42.8125 75.523438 42.292969 C 75.507812 42.171875 75.492188 42.035156 75.476562 41.867188 C 75.414062 41.238281 75.335938 40.292969 75.015625 39.683594 C 74.707031 39.101562 74.058594 38.917969 73.71875 38.902344 L 73.691406 38.902344 C 72.949219 38.949219 72.195312 38.980469 71.472656 39.027344 C 70.117188 39.085938 68.714844 39.164062 67.34375 39.300781 C 65.203125 39.53125 63.019531 39.820312 60.925781 40.09375 C 60.324219 40.171875 59.753906 40.246094 59.167969 40.324219 L 58.691406 40.386719 C 56.136719 40.707031 53.488281 41.042969 50.929688 41.621094 C 50.898438 41.621094 50.867188 41.636719 50.824219 41.652344 C 50.636719 41.699219 50.46875 41.730469 50.285156 41.773438 C 50.144531 41.804688 50.023438 41.835938 49.882812 41.882812 C 49.804688 41.898438 49.746094 41.925781 49.667969 41.941406 C 47.15625 42.660156 45.015625 43.898438 45.449219 46.753906 C 45.464844 46.859375 45.449219 46.953125 45.402344 47.027344 L 45.371094 47.074219 L 45.371094 47.121094 C 45.386719 47.273438 45.417969 47.425781 45.433594 47.578125 C 45.570312 48.539062 45.710938 49.503906 45.847656 50.449219 C 45.910156 50.863281 45.957031 51.289062 46.019531 51.703125 C 46.035156 51.777344 46.035156 51.855469 46.050781 51.945312 C 46.066406 52.113281 46.09375 52.28125 46.109375 52.449219 C 46.140625 52.648438 46.15625 52.847656 46.1875 53.046875 C 46.601562 56.332031 46.941406 59.492188 47.1875 62.636719 C 47.234375 63.203125 47.265625 63.800781 47.296875 64.378906 C 47.402344 66.226562 47.511719 68.121094 48.035156 69.863281 L 48.066406 69.9375 L 48.160156 69.953125 C 50.007812 70.414062 51.839844 70.839844 53.824219 70.839844 C 53.917969 70.839844 54.027344 70.839844 54.117188 70.839844 C 56.042969 70.792969 67.238281 69.585938 73.398438 67.890625 C 73.304688 67.679688 73.226562 67.527344 73.167969 67.359375 C 73.535156 67.359375 73.921875 67.265625 74.242188 67.375 C 74.320312 67.402344 74.398438 67.480469 74.445312 67.585938 C 75.984375 67.097656 77.0625 66.578125 77.371094 66.042969 L 77.386719 66.027344 L 77.386719 66.015625 C 77.585938 65.265625 77.769531 64.425781 77.769531 63.402344 C 77.832031 63.050781 77.722656 62.117188 77.585938 61.035156 Z M 71.164062 39.4375 C 71.304688 39.375 71.472656 39.363281 71.625 39.332031 C 71.640625 39.453125 71.71875 39.621094 71.65625 39.667969 C 71.566406 39.757812 71.410156 39.773438 71.195312 39.867188 C 71.179688 39.652344 71.132812 39.453125 71.164062 39.4375 Z M 56.472656 46.203125 C 56.550781 46.417969 56.597656 46.570312 56.644531 46.722656 C 56.382812 46.664062 56.105469 46.632812 55.859375 46.554688 C 55.8125 46.539062 55.8125 46.371094 55.78125 46.28125 C 55.996094 46.25 56.210938 46.234375 56.472656 46.203125 Z M 50.5625 51.59375 C 50.113281 51.335938 49.789062 50.953125 49.574219 50.496094 C 49.484375 50.3125 49.421875 50.113281 49.375 49.914062 C 49.328125 49.703125 49.296875 49.472656 49.296875 49.242188 C 49.296875 49.074219 49.3125 48.890625 49.34375 48.722656 C 49.359375 48.617188 49.390625 48.511719 49.421875 48.402344 C 49.484375 48.21875 49.558594 48.035156 49.667969 47.855469 C 49.683594 47.792969 49.714844 47.746094 49.730469 47.699219 C 49.789062 47.5625 49.851562 47.425781 49.929688 47.304688 C 50.023438 47.136719 50.144531 46.984375 50.269531 46.832031 C 50.421875 46.664062 50.605469 46.496094 50.824219 46.371094 C 51.023438 46.25 51.222656 46.15625 51.46875 46.097656 C 52.808594 45.730469 54.070312 46.523438 54.625 47.699219 C 55.164062 48.328125 55.367188 49.289062 55.148438 50.082031 C 54.75 51.566406 53.253906 52.542969 51.730469 52.175781 C 51.300781 52.070312 50.929688 51.886719 50.621094 51.640625 C 50.605469 51.625 50.589844 51.609375 50.5625 51.59375 Z M 57.214844 65.832031 C 57.105469 66.015625 56.980469 66.183594 56.84375 66.351562 C 56.566406 66.792969 56.179688 67.191406 55.71875 67.449219 C 54.257812 68.304688 52.453125 67.738281 51.5625 66.363281 C 51.007812 65.496094 50.824219 64.332031 51.128906 63.339844 C 51.546875 62.042969 52.65625 61.277344 53.996094 61.140625 C 55.089844 61.035156 56.257812 61.507812 56.9375 62.363281 C 57.722656 63.371094 57.828125 64.714844 57.214844 65.832031 Z M 57.984375 48.539062 C 57.796875 48.679688 57.597656 48.800781 57.398438 48.921875 C 57.367188 48.769531 57.351562 48.632812 57.304688 48.371094 C 57.566406 48.328125 57.753906 48.296875 57.953125 48.28125 C 57.953125 48.28125 58.027344 48.511719 57.984375 48.539062 Z M 63.878906 56.316406 C 63.480469 57.796875 61.988281 58.773438 60.460938 58.40625 C 60.03125 58.300781 59.660156 58.117188 59.351562 57.871094 C 59.339844 57.859375 59.308594 57.859375 59.292969 57.84375 C 58.214844 57.199219 57.8125 55.8125 58.167969 54.664062 C 58.230469 54.480469 58.304688 54.300781 58.414062 54.117188 C 58.707031 53.289062 59.292969 52.605469 60.199219 52.34375 C 61.539062 51.976562 62.804688 52.773438 63.355469 53.949219 C 63.894531 54.558594 64.097656 55.519531 63.878906 56.316406 Z M 66.003906 45.304688 C 66.066406 45.121094 66.144531 44.9375 66.253906 44.753906 C 66.542969 43.929688 67.128906 43.242188 68.039062 42.980469 C 69.378906 42.613281 70.640625 43.410156 71.195312 44.585938 C 71.734375 45.210938 71.933594 46.171875 71.71875 46.96875 C 71.316406 48.449219 69.824219 49.425781 68.300781 49.058594 C 67.867188 48.953125 67.5 48.769531 67.191406 48.527344 C 67.175781 48.511719 67.144531 48.511719 67.128906 48.496094 C 66.035156 47.839844 65.636719 46.449219 66.003906 45.304688 Z M 68.007812 63.921875 C 67.039062 62.945312 66.851562 61.539062 67.253906 60.269531 C 67.714844 58.773438 69.039062 57.902344 70.609375 58.195312 C 71.117188 58.285156 71.625 58.546875 72.058594 58.882812 C 72.78125 59.246094 73.367188 59.875 73.597656 60.757812 C 73.78125 61.445312 73.71875 62.195312 73.472656 62.867188 C 73.457031 62.898438 73.457031 62.929688 73.441406 62.945312 C 73.136719 63.722656 72.550781 64.394531 71.765625 64.730469 C 70.488281 65.25 68.976562 64.898438 68.007812 63.921875 Z M 72.65625 66.105469 C 72.582031 66.089844 72.535156 65.921875 72.394531 65.679688 C 72.859375 65.753906 73.167969 65.785156 73.457031 65.859375 C 73.519531 65.875 73.535156 66.058594 73.566406 66.167969 C 73.257812 66.152344 72.964844 66.152344 72.65625 66.105469 Z M 73.796875 65.066406 C 73.78125 65.128906 73.597656 65.144531 73.429688 65.21875 C 73.398438 65.019531 73.320312 64.851562 73.367188 64.777344 C 73.429688 64.699219 73.597656 64.683594 73.71875 64.65625 C 73.75 64.792969 73.8125 64.929688 73.796875 65.066406 Z M 73.796875 65.066406 " fill-opacity="1" fill-rule="nonzero"/><path fill="#1bbbf4" d="M 27.523438 49.457031 C 27.464844 47.714844 27.402344 45.914062 27.570312 44.171875 L 27.570312 44.125 L 27.539062 44.082031 C 26.863281 42.964844 26.109375 41.988281 25.445312 41.164062 L 25.414062 41.132812 C 24.414062 40.339844 23.628906 39.363281 23.152344 38.675781 L 23.121094 38.644531 C 21.132812 37.117188 19.210938 35.328125 17.40625 33.3125 L 17.375 33.28125 C 16.144531 32.320312 14.898438 31.417969 13.679688 30.59375 C 13.296875 30.335938 12.878906 30.105469 12.480469 29.875 L 12.480469 29.863281 C 12.050781 29.617188 11.617188 29.371094 11.203125 29.097656 L 11.15625 29.066406 L 11.09375 29.066406 C 10.601562 29.113281 10.261719 29.234375 10 29.433594 L 9.9375 29.480469 L 9.9375 29.554688 C 9.984375 30.152344 9.953125 30.792969 9.925781 31.34375 C 9.910156 31.664062 9.894531 32.046875 9.894531 32.398438 C 9.894531 33.816406 9.894531 35.175781 9.894531 36.535156 C 9.894531 36.980469 9.910156 37.421875 9.910156 37.863281 L 9.925781 38.414062 C 9.953125 40.15625 9.984375 41.941406 9.863281 43.683594 L 9.863281 43.714844 C 9.9375 44.675781 10.109375 45.441406 10.402344 46.128906 C 10.632812 46.675781 10.972656 47.136719 11.25 47.503906 L 11.25 47.515625 L 11.261719 47.53125 C 12.511719 48.707031 13.726562 49.992188 14.804688 51.121094 L 14.898438 51.214844 C 15.820312 52.191406 16.777344 53.183594 17.730469 54.117188 C 18.699219 55.0625 19.761719 56.007812 20.703125 56.851562 C 21.964844 57.980469 23.257812 59.125 24.445312 60.347656 L 24.460938 60.363281 L 24.523438 60.410156 C 24.628906 60.484375 24.722656 60.546875 24.8125 60.605469 C 24.890625 60.652344 24.984375 60.714844 25.074219 60.789062 C 25.492188 61.082031 25.921875 61.355469 26.214844 61.386719 C 26.261719 61.386719 26.308594 61.386719 26.339844 61.386719 C 26.894531 61.386719 27.078125 60.988281 27.308594 60.394531 C 27.355469 60.285156 27.402344 60.164062 27.449219 60.042969 C 27.449219 60.042969 27.449219 60.027344 27.464844 60.011719 L 27.476562 59.996094 C 27.476562 59.996094 27.492188 59.917969 27.492188 59.90625 L 27.492188 59.875 C 27.402344 59.109375 27.417969 58.347656 27.449219 57.613281 C 27.507812 55.550781 27.554688 54.007812 27.570312 52.617188 C 27.585938 51.625 27.554688 50.585938 27.507812 49.59375 Z M 13.757812 36.109375 C 13.679688 36.214844 13.589844 36.308594 13.464844 36.367188 C 12.972656 36.613281 12.371094 36.230469 12.0625 35.863281 C 12.035156 35.816406 12.003906 35.773438 11.957031 35.726562 C 11.910156 35.679688 11.878906 35.648438 11.847656 35.605469 C 11.125 34.765625 10.125 32.367188 11.433594 31.601562 C 12.972656 30.703125 14.035156 32.75 14.113281 33.984375 C 14.113281 34 14.113281 34 14.113281 34.015625 C 14.144531 34.183594 14.160156 34.382812 14.160156 34.597656 C 14.234375 35.253906 14.144531 35.847656 13.757812 36.109375 Z M 16.421875 46.738281 C 16.453125 46.84375 16.484375 46.9375 16.53125 47.027344 C 16.484375 46.9375 16.453125 46.832031 16.421875 46.738281 Z M 19.515625 47.714844 C 19.300781 48.738281 18.300781 49.488281 17.375 48.664062 C 17.160156 48.464844 16.882812 47.960938 16.636719 47.335938 C 16.667969 47.363281 16.699219 47.394531 16.714844 47.425781 C 16.929688 47.242188 17.054688 47.152344 17.175781 47.042969 C 16.914062 46.9375 16.667969 46.816406 16.40625 46.707031 C 16.007812 45.457031 15.789062 43.988281 16.375 43.5 C 16.5 43.316406 16.683594 43.179688 16.976562 43.148438 C 18.023438 43.027344 18.699219 44.507812 18.976562 45.304688 C 19.457031 46.003906 19.703125 46.890625 19.515625 47.714844 Z M 26.078125 57.339844 C 26.015625 57.582031 25.890625 57.78125 25.722656 57.933594 C 25.492188 58.210938 25.136719 58.378906 24.660156 58.316406 C 23.796875 58.222656 23.367188 57.355469 23.074219 56.558594 C 22.71875 55.980469 22.503906 55.308594 22.519531 54.695312 C 22.519531 54.558594 22.550781 54.453125 22.582031 54.34375 C 22.582031 54.34375 22.582031 54.328125 22.582031 54.328125 C 22.597656 54.285156 22.613281 54.222656 22.644531 54.191406 C 22.84375 53.429688 23.613281 52.925781 24.398438 53.398438 C 25.089844 53.808594 25.570312 54.664062 25.847656 55.476562 C 26.109375 56.101562 26.214844 56.773438 26.078125 57.339844 Z M 83.777344 69.265625 L 83.761719 68.992188 L 83.761719 68.929688 C 83.777344 68.746094 83.730469 68.015625 83.699219 67.207031 C 83.238281 68.457031 82.160156 65.722656 82.375 63.769531 C 82.636719 61.386719 83.175781 62.316406 83.53125 63.691406 L 83.53125 63.507812 C 83.53125 63.476562 83.53125 63.449219 83.53125 63.417969 C 83.53125 63.371094 83.53125 63.339844 83.515625 63.308594 C 83.46875 62.300781 83.421875 61.171875 83.375 59.949219 C 83.296875 59.980469 83.191406 60.011719 83.082031 60.042969 C 83.050781 59.78125 83.035156 59.628906 83.019531 59.476562 C 83.128906 59.460938 83.253906 59.445312 83.359375 59.429688 C 83.296875 57.734375 83.222656 55.902344 83.160156 54.070312 C 83.144531 53.472656 83.144531 52.878906 83.144531 52.238281 C 83.144531 51.367188 83.160156 50.464844 83.097656 49.59375 C 83.050781 49 82.820312 48.417969 82.4375 47.882812 C 82.21875 47.609375 82.066406 47.289062 81.882812 46.96875 C 81.804688 46.816406 81.726562 46.664062 81.636719 46.507812 C 81.113281 45.5625 80.542969 44.644531 79.957031 43.789062 C 79.816406 43.59375 79.679688 43.378906 79.542969 43.164062 C 78.785156 42.035156 77.941406 40.734375 76.878906 39.820312 L 76.628906 39.605469 L 76.617188 39.925781 C 76.601562 40.324219 76.585938 40.707031 76.570312 41.085938 C 76.539062 41.746094 76.507812 42.402344 76.507812 43.058594 C 76.507812 44.066406 76.539062 45.089844 76.554688 45.945312 C 76.617188 46.617188 76.644531 47.289062 76.675781 47.898438 C 76.722656 48.664062 77 50.742188 77.339844 53.136719 C 77.460938 54.007812 77.585938 54.910156 77.707031 55.8125 L 77.707031 55.839844 L 77.722656 55.871094 C 77.722656 55.886719 77.738281 55.902344 77.738281 55.902344 C 77.925781 56.589844 78.878906 61.859375 78.910156 62.730469 L 78.910156 62.761719 C 79.003906 63.050781 79.0625 63.339844 79.125 63.632812 C 79.203125 64.011719 79.292969 64.410156 79.433594 64.777344 C 79.601562 65.265625 79.832031 65.707031 80.066406 66.152344 C 80.28125 66.5625 80.496094 66.992188 80.648438 67.417969 C 80.648438 67.433594 80.664062 67.449219 80.664062 67.464844 L 80.664062 67.511719 C 80.664062 67.511719 80.878906 67.785156 80.972656 67.90625 C 81.019531 67.953125 81.050781 68 81.097656 68.058594 C 81.113281 68.058594 81.128906 68.058594 81.140625 68.074219 C 81.1875 68.089844 81.21875 68.167969 81.234375 68.242188 C 81.375 68.410156 81.511719 68.59375 81.652344 68.761719 C 81.820312 68.976562 82.003906 69.191406 82.175781 69.390625 L 82.203125 69.417969 C 82.234375 69.449219 82.265625 69.464844 82.28125 69.511719 C 82.28125 69.527344 82.296875 69.542969 82.296875 69.542969 L 82.296875 69.558594 L 82.3125 69.585938 C 82.667969 70.03125 83.082031 70.566406 83.4375 71.160156 C 83.453125 71.175781 83.453125 71.191406 83.453125 71.191406 L 83.746094 71.144531 C 83.867188 70.566406 83.820312 69.910156 83.777344 69.265625 Z M 79.386719 50.25 C 78.753906 51.6875 77.832031 49.609375 77.691406 49 C 77.507812 48.160156 77.492188 47.273438 77.523438 46.417969 C 77.539062 45.882812 77.570312 45.011719 78.015625 44.628906 C 78.417969 44.28125 78.679688 44.507812 78.863281 44.9375 C 78.941406 44.9375 79.03125 44.980469 79.0625 45.074219 C 79.433594 45.960938 79.527344 46.890625 79.542969 47.824219 C 79.570312 48.554688 79.695312 49.5625 79.386719 50.25 Z M 81.636719 63.171875 C 81.34375 66.867188 79.25 63.113281 79.601562 60.578125 C 79.972656 57.886719 80.726562 59.019531 81.21875 60.605469 C 81.019531 60.773438 80.820312 60.925781 80.617188 61.09375 C 80.894531 61.203125 81.15625 61.308594 81.433594 61.417969 C 81.574219 62.105469 81.667969 62.777344 81.636719 63.171875 Z M 81.203125 60.621094 C 81.234375 60.746094 81.28125 60.867188 81.3125 61.003906 C 81.28125 60.867188 81.25 60.746094 81.203125 60.621094 Z M 81.851562 53.597656 C 80.988281 53.964844 80.804688 52.511719 80.726562 51.992188 C 80.558594 50.894531 80.402344 49.503906 80.957031 48.496094 C 81.003906 48.417969 81.097656 48.402344 81.171875 48.449219 C 82.160156 48.800781 82.375 50.191406 82.496094 51.089844 C 82.574219 51.777344 82.699219 53.230469 81.851562 53.597656 Z M 22.675781 21.382812 C 22.6875 21.355469 22.703125 21.324219 22.71875 21.308594 C 22.796875 21.277344 22.890625 21.246094 22.964844 21.214844 C 22.980469 21.214844 22.980469 21.214844 22.996094 21.203125 C 23.074219 21.171875 23.167969 21.15625 23.257812 21.125 C 23.289062 21.1875 23.304688 21.230469 23.289062 21.261719 C 23.199219 21.398438 22.996094 21.476562 22.828125 21.550781 C 22.78125 21.550781 22.660156 21.414062 22.675781 21.382812 Z M 42.246094 28.777344 C 42.046875 28.914062 41.84375 29.066406 41.597656 29.21875 C 41.445312 29.097656 41.335938 29.019531 41.246094 28.945312 C 41.429688 28.792969 41.582031 28.59375 41.800781 28.515625 C 41.90625 28.472656 42.089844 28.683594 42.246094 28.777344 Z M 24.644531 56.621094 C 24.550781 56.695312 24.460938 56.820312 24.367188 56.820312 C 24.261719 56.820312 24.136719 56.710938 23.90625 56.589844 C 24.136719 56.46875 24.261719 56.359375 24.367188 56.375 C 24.476562 56.390625 24.550781 56.527344 24.644531 56.621094 Z M 25.707031 56.207031 C 25.570312 56.34375 25.429688 56.5 25.277344 56.605469 C 25.246094 56.621094 25.105469 56.484375 24.722656 56.191406 C 25.03125 56.054688 25.214844 55.933594 25.414062 55.902344 C 25.492188 55.902344 25.601562 56.101562 25.707031 56.207031 Z M 72.410156 60.972656 C 72.273438 60.820312 72.132812 60.714844 72.132812 60.621094 C 72.132812 60.53125 72.289062 60.421875 72.378906 60.332031 C 72.472656 60.4375 72.613281 60.53125 72.65625 60.652344 C 72.671875 60.714844 72.519531 60.820312 72.410156 60.972656 Z M 73.027344 61.722656 C 72.765625 61.859375 72.503906 62.011719 72.226562 62.132812 C 72.164062 62.164062 72.027344 62.042969 71.78125 61.90625 C 72.210938 61.722656 72.488281 61.601562 72.78125 61.507812 C 72.84375 61.476562 72.949219 61.644531 73.027344 61.722656 Z M 68.746094 59.507812 C 68.824219 59.660156 68.917969 59.8125 69.132812 60.226562 C 69.023438 60.253906 68.855469 60.347656 68.714844 60.316406 C 68.640625 60.300781 68.5 60.101562 68.515625 60.011719 C 68.546875 59.84375 68.667969 59.675781 68.746094 59.507812 Z M 73.472656 62.851562 C 73.457031 62.882812 73.457031 62.914062 73.441406 62.929688 C 73.441406 62.929688 73.441406 62.945312 73.429688 62.945312 C 73.414062 62.929688 73.398438 62.914062 73.367188 62.898438 C 73.414062 62.898438 73.441406 62.867188 73.472656 62.851562 Z M 80.835938 59.675781 C 80.757812 59.765625 80.679688 59.875 80.558594 60.027344 C 80.433594 59.890625 80.28125 59.765625 80.296875 59.722656 C 80.328125 59.613281 80.464844 59.492188 80.558594 59.476562 C 80.648438 59.460938 80.742188 59.597656 80.835938 59.675781 Z M 79.863281 61.90625 C 79.804688 61.996094 79.726562 62.105469 79.648438 62.195312 C 79.617188 62.027344 79.601562 61.84375 79.585938 61.675781 C 79.601562 61.675781 79.601562 61.675781 79.617188 61.660156 C 79.664062 61.644531 79.878906 61.890625 79.863281 61.90625 Z M 79.863281 61.90625 " fill-opacity="1" fill-rule="nonzero"/><path fill="#7a49a9" d="M 49.683594 32.777344 L 49.683594 32.71875 C 49.621094 32.410156 49.542969 32.0625 49.453125 31.726562 L 49.4375 31.648438 L 49.359375 31.617188 C 49.160156 31.542969 48.914062 31.511719 48.621094 31.511719 C 48.328125 31.511719 48.082031 31.542969 47.957031 31.570312 L 47.925781 31.570312 L 47.898438 31.585938 C 47.097656 32.183594 46.203125 32.6875 45.339844 33.175781 L 45.15625 33.28125 C 45.003906 33.375 44.863281 33.449219 44.710938 33.542969 C 43.214844 34.414062 41.644531 35.222656 40.136719 36.015625 L 39.859375 36.167969 C 39.058594 36.597656 38.242188 37.007812 37.441406 37.4375 L 36.378906 38.003906 C 34.652344 38.917969 33.207031 39.683594 31.742188 40.445312 L 31.726562 40.445312 L 31.589844 40.539062 C 31.511719 40.582031 31.449219 40.628906 31.375 40.691406 L 31.359375 40.707031 C 31.097656 40.890625 30.851562 41.058594 30.621094 41.238281 L 30.589844 41.269531 C 30.480469 41.4375 30.359375 41.589844 30.234375 41.746094 L 30.171875 41.820312 C 29.820312 42.292969 29.480469 42.738281 29.25 43.257812 C 29.035156 43.746094 28.957031 44.265625 28.878906 44.769531 L 28.863281 44.890625 L 28.863281 44.90625 C 29.019531 46.601562 28.972656 48.328125 28.910156 50.007812 C 28.894531 50.710938 28.863281 51.320312 28.863281 51.945312 C 28.832031 54.648438 28.710938 57.324219 28.601562 59.566406 L 28.601562 59.597656 C 28.632812 59.78125 28.632812 59.980469 28.601562 60.164062 L 28.601562 60.210938 L 28.632812 60.253906 C 28.816406 60.589844 29.15625 60.867188 29.574219 60.988281 C 29.820312 61.066406 30.066406 61.066406 30.34375 61.082031 L 30.359375 61.082031 C 30.589844 61.082031 30.789062 61.082031 31.003906 61.125 L 31.035156 61.125 L 31.066406 61.109375 C 31.40625 61.003906 31.742188 60.882812 32.097656 60.730469 C 32.542969 60.5 32.945312 60.300781 33.359375 60.101562 C 34.207031 59.628906 35.054688 59.0625 35.871094 58.53125 L 35.933594 58.484375 C 36.332031 58.222656 36.777344 57.917969 37.195312 57.644531 C 37.796875 57.261719 38.394531 56.851562 38.980469 56.46875 L 39.105469 56.390625 C 40.566406 55.414062 42.078125 54.390625 43.648438 53.597656 L 43.664062 53.582031 L 43.675781 53.566406 C 44.015625 53.277344 44.386719 52.96875 44.738281 52.664062 C 44.632812 50.617188 44.554688 48.617188 44.507812 46.617188 C 44.507812 46.585938 44.507812 46.539062 44.523438 46.507812 L 44.539062 46.464844 L 44.523438 46.417969 C 44.1875 45.210938 44.324219 44.140625 44.910156 43.226562 C 45.800781 41.851562 47.664062 40.980469 49.667969 40.414062 C 49.667969 40.0625 49.667969 39.726562 49.667969 39.390625 C 49.667969 38.691406 49.636719 37.972656 49.605469 37.207031 C 49.574219 35.789062 49.5 34.230469 49.683594 32.777344 Z M 30.652344 45.988281 C 30.066406 45.394531 30.402344 44.507812 30.789062 43.898438 C 31.421875 42.90625 33.3125 41.515625 34.40625 42.707031 C 34.960938 43.300781 34.730469 44.25 34.316406 44.859375 C 34.113281 45.148438 33.851562 45.425781 33.5625 45.667969 C 33.390625 45.820312 33.207031 45.976562 33.023438 46.082031 C 32.328125 46.464844 31.265625 46.617188 30.652344 45.988281 Z M 34.746094 56.316406 C 34.578125 57.230469 34.039062 58.179688 33.160156 58.484375 C 32.804688 58.605469 32.46875 58.589844 32.191406 58.46875 C 31.820312 58.453125 31.480469 58.316406 31.25 57.964844 C 30.882812 57.414062 31.019531 56.742188 31.296875 56.191406 C 31.574219 55.628906 32.082031 55.0625 32.683594 54.710938 C 33.007812 54.46875 33.375 54.3125 33.730469 54.328125 C 33.792969 54.328125 33.839844 54.34375 33.882812 54.375 C 33.898438 54.375 33.914062 54.375 33.929688 54.375 C 33.960938 54.375 33.976562 54.375 34.007812 54.390625 C 34.007812 54.390625 34.023438 54.390625 34.023438 54.390625 C 34.46875 54.46875 34.855469 54.757812 34.945312 55.246094 C 35.023438 55.613281 34.914062 55.980469 34.746094 56.316406 Z M 41.230469 47.609375 C 40.707031 48.097656 39.964844 48.480469 39.226562 48.464844 C 38.363281 48.449219 37.886719 47.730469 38.074219 46.9375 C 38.179688 46.449219 38.441406 45.945312 38.796875 45.515625 C 39.195312 44.753906 39.890625 44.113281 40.613281 44.082031 C 41.445312 44.050781 42.078125 44.753906 42.121094 45.546875 C 42.152344 46.3125 41.769531 47.089844 41.230469 47.609375 Z M 42.414062 48.585938 C 42.214844 48.511719 42.121094 48.144531 41.800781 47.640625 C 42.429688 47.824219 42.769531 47.898438 43.078125 48.035156 C 43.199219 48.097656 43.230469 48.328125 43.308594 48.480469 C 43.015625 48.527344 42.675781 48.679688 42.414062 48.585938 Z M 48.4375 35.558594 C 48.160156 36.628906 47.066406 37.574219 46.003906 37.863281 C 45.402344 38.015625 44.679688 37.988281 44.308594 37.4375 C 43.984375 36.980469 44.109375 36.320312 44.355469 35.863281 C 44.554688 35.511719 44.816406 35.191406 45.15625 34.933594 C 45.570312 34.429688 46.109375 34 46.601562 33.769531 C 47.882812 33.191406 48.742188 34.351562 48.4375 35.558594 Z M 83.3125 72.414062 C 83.066406 72.199219 82.867188 71.910156 82.699219 71.664062 C 82.496094 71.359375 82.3125 71.039062 82.113281 70.625 L 82.097656 70.609375 L 82.082031 70.597656 C 81.882812 70.382812 81.710938 70.199219 81.542969 70 L 81.511719 69.96875 C 81.433594 69.921875 81.375 69.878906 81.296875 69.816406 C 81.511719 70.304688 81.710938 70.75 81.914062 71.175781 C 81.804688 71.175781 81.652344 71.222656 81.605469 71.175781 C 81.171875 70.640625 80.757812 70.089844 80.328125 69.542969 C 80.496094 69.511719 80.664062 69.496094 80.835938 69.464844 C 80.664062 69.328125 80.511719 69.191406 80.34375 69.039062 L 80.3125 69.007812 L 80.265625 69.007812 C 80.203125 68.992188 80.140625 68.976562 80.09375 68.945312 C 79.863281 68.777344 79.664062 68.550781 79.480469 68.242188 L 79.464844 68.214844 L 79.433594 68.199219 C 79.046875 67.90625 78.648438 67.785156 78.140625 67.785156 C 77.769531 67.785156 77.355469 67.863281 77.015625 67.9375 C 77 67.9375 76.984375 67.9375 76.953125 67.9375 C 76.9375 67.9375 76.921875 67.9375 76.90625 67.9375 L 76.847656 67.921875 L 76.800781 67.953125 C 75.675781 68.609375 74.167969 68.839844 72.949219 69.039062 C 70.242188 69.464844 67.792969 69.832031 65.328125 70.089844 C 64.898438 70.136719 64.496094 70.199219 64.128906 70.273438 C 62.234375 70.640625 59.214844 71.070312 57.921875 71.253906 L 57.550781 71.296875 L 57.535156 71.296875 C 55.859375 71.878906 53.996094 72.382812 51.5 72.949219 C 51.253906 73.023438 51.007812 73.132812 50.867188 73.269531 C 50.699219 73.453125 50.683594 73.664062 50.824219 73.925781 L 50.839844 73.941406 L 50.851562 73.957031 C 51.699219 74.71875 52.609375 75.375 53.394531 75.925781 C 55.628906 77.484375 58.136719 77.699219 60.292969 77.699219 C 60.476562 77.699219 60.679688 77.699219 60.863281 77.699219 C 63.296875 77.667969 65.929688 77.53125 68.902344 77.285156 C 70.039062 77.195312 78.753906 75.683594 81.066406 74.550781 C 81.1875 74.492188 81.296875 74.445312 81.390625 74.398438 L 81.40625 74.398438 L 81.652344 74.214844 C 82.28125 73.742188 82.929688 73.253906 83.3125 72.640625 L 83.375 72.535156 Z M 53.441406 74.277344 C 53.085938 74.199219 52.191406 73.988281 52.117188 73.542969 C 52.054688 73.207031 52.640625 73.070312 52.871094 73.007812 C 53.488281 72.855469 54.132812 72.808594 54.765625 72.765625 C 55.132812 72.734375 55.503906 72.71875 55.890625 72.71875 C 56.242188 72.71875 59.246094 72.566406 60.214844 73.085938 C 60.523438 73.253906 60.09375 73.527344 59.9375 73.589844 C 59.644531 73.695312 59.339844 73.757812 59.03125 73.832031 C 58.304688 74.015625 57.566406 74.140625 56.828125 74.246094 C 55.71875 74.398438 54.550781 74.519531 53.441406 74.277344 Z M 56.367188 75.726562 C 56.074219 75.667969 55.335938 75.484375 55.273438 75.117188 C 55.226562 74.84375 55.703125 74.71875 55.902344 74.671875 C 56.414062 74.550781 56.953125 74.503906 57.476562 74.460938 C 57.78125 74.445312 58.089844 74.429688 58.398438 74.429688 C 58.691406 74.429688 61.1875 74.308594 62.003906 74.734375 C 62.265625 74.871094 61.894531 75.101562 61.769531 75.148438 C 61.523438 75.238281 61.261719 75.285156 61.015625 75.347656 C 60.414062 75.5 59.800781 75.605469 59.183594 75.683594 C 58.277344 75.820312 57.289062 75.925781 56.367188 75.726562 Z M 64.066406 76.691406 C 63.820312 76.765625 63.574219 76.828125 63.328125 76.886719 C 62.726562 77.042969 62.125 77.148438 61.507812 77.222656 C 60.585938 77.347656 59.628906 77.46875 58.707031 77.253906 C 58.414062 77.195312 57.675781 77.011719 57.613281 76.660156 C 57.566406 76.382812 58.042969 76.261719 58.230469 76.214844 C 58.738281 76.09375 59.277344 76.046875 59.785156 76.019531 C 60.09375 76.003906 60.402344 75.988281 60.707031 75.988281 C 61 75.988281 63.480469 75.863281 64.28125 76.277344 C 64.542969 76.414062 64.1875 76.644531 64.066406 76.691406 Z M 79.203125 69.511719 C 79.265625 69.527344 79.308594 69.847656 79.292969 69.847656 C 79.046875 69.953125 78.800781 70.03125 78.492188 70.136719 C 78.339844 69.800781 78.21875 69.558594 78.109375 69.328125 C 78.480469 69.390625 78.847656 69.417969 79.203125 69.511719 Z M 68.40625 72.09375 C 68.054688 72.015625 67.160156 71.800781 67.082031 71.359375 C 67.023438 71.023438 67.605469 70.886719 67.839844 70.824219 C 68.453125 70.671875 69.101562 70.625 69.730469 70.582031 C 70.101562 70.550781 70.472656 70.535156 70.855469 70.535156 C 71.210938 70.535156 74.214844 70.382812 75.183594 70.902344 C 75.492188 71.070312 75.058594 71.34375 74.90625 71.40625 C 74.613281 71.511719 74.304688 71.574219 73.996094 71.648438 C 73.273438 71.832031 72.535156 71.957031 71.796875 72.0625 C 70.6875 72.214844 69.515625 72.351562 68.40625 72.09375 Z M 71.332031 73.542969 C 71.042969 73.484375 70.300781 73.300781 70.242188 72.933594 C 70.195312 72.65625 70.671875 72.535156 70.871094 72.488281 C 71.378906 72.367188 71.917969 72.320312 72.441406 72.277344 C 72.75 72.261719 73.058594 72.246094 73.367188 72.246094 C 73.660156 72.246094 76.152344 72.125 76.96875 72.550781 C 77.230469 72.6875 76.863281 72.917969 76.738281 72.964844 C 76.492188 73.054688 76.230469 73.101562 75.984375 73.160156 C 75.382812 73.316406 74.765625 73.421875 74.152344 73.496094 C 73.242188 73.652344 72.257812 73.757812 71.332031 73.542969 Z M 79.03125 74.519531 C 78.785156 74.597656 78.539062 74.660156 78.292969 74.71875 C 77.691406 74.871094 77.09375 74.980469 76.476562 75.054688 C 75.554688 75.179688 74.597656 75.300781 73.675781 75.085938 C 73.382812 75.023438 72.640625 74.84375 72.582031 74.492188 C 72.535156 74.214844 73.011719 74.09375 73.195312 74.046875 C 73.703125 73.925781 74.242188 73.878906 74.753906 73.847656 C 75.058594 73.832031 75.367188 73.820312 75.675781 73.820312 C 75.96875 73.820312 78.449219 73.695312 79.25 74.109375 C 79.527344 74.246094 79.15625 74.476562 79.03125 74.519531 Z M 31.882812 45.179688 C 31.835938 45.316406 31.726562 45.425781 31.652344 45.5625 C 31.558594 45.484375 31.480469 45.410156 31.328125 45.289062 C 31.496094 45.148438 31.605469 45.058594 31.714844 44.96875 C 31.773438 45.027344 31.898438 45.136719 31.882812 45.179688 Z M 32.5 44.476562 C 32.359375 44.476562 32.222656 44.371094 31.945312 44.234375 C 32.207031 44.066406 32.328125 43.929688 32.46875 43.914062 C 32.558594 43.914062 32.714844 44.082031 32.730469 44.203125 C 32.746094 44.292969 32.574219 44.476562 32.5 44.476562 Z M 32.5 44.476562 " fill-opacity="1" fill-rule="nonzero"/><g clip-path="url(#457eae4f69)"><g clip-path="url(#5f9a613f94)"><g transform="matrix(1, 0, 0, 1, 37, 37)"><g clip-path="url(#cae63b6de8)"><g clip-path="url(#ff1182716d)"><g clip-path="url(#691355745a)"><path fill="#7a49a9" d="M 0.0117188 0.417969 L 5.015625 0.417969 L 5.015625 5.421875 L 0.0117188 5.421875 Z M 0.0117188 0.417969 " fill-opacity="1" fill-rule="nonzero"/></g></g></g></g></g></g></svg>